<?xml version="1.0" standalone="no"?><!DOCTYPE svg PUBLIC "-//W3C//DTD SVG 1.1//EN" "http://www.w3.org/Graphics/SVG/1.1/DTD/svg11.dtd"><svg t="1721721597889" class="icon" viewBox="0 0 1024 1024" version="1.1" xmlns="http://www.w3.org/2000/svg" p-id="5606" xmlns:xlink="http://www.w3.org/1999/xlink" width="256" height="256"><path d="M0 0h1024v1024H0V0z" fill="#202425" opacity=".01" p-id="5607"></path><path d="M989.866667 512c0 263.918933-213.947733 477.866667-477.866667 477.866667S34.133333 775.918933 34.133333 512 248.081067 34.133333 512 34.133333s477.866667 213.947733 477.866667 477.866667z" fill="#FF7744" p-id="5608"></path><path d="M512 204.8a68.266667 68.266667 0 0 1 68.266667 68.266667v17.066666a68.266667 68.266667 0 1 1-136.533334 0V273.066667a68.266667 68.266667 0 0 1 68.266667-68.266667z m0 204.8a68.266667 68.266667 0 0 1 68.266667 68.266667v273.066666a68.266667 68.266667 0 1 1-136.533334 0v-273.066666a68.266667 68.266667 0 0 1 68.266667-68.266667z" fill="#FFFFFF" p-id="5609"></path></svg>