<?xml version="1.0" standalone="no"?><!DOCTYPE svg PUBLIC "-//W3C//DTD SVG 1.1//EN" "http://www.w3.org/Graphics/SVG/1.1/DTD/svg11.dtd"><svg t="1721719288071" class="icon" viewBox="0 0 1024 1024" version="1.1" xmlns="http://www.w3.org/2000/svg" p-id="4414" xmlns:xlink="http://www.w3.org/1999/xlink" width="256" height="256"><path d="M0 0h1024v1024H0V0z" fill="#202425" opacity=".01" p-id="4415"></path><path d="M955.733333 238.933333a170.666667 170.666667 0 1 0-341.333333 0 170.666667 170.666667 0 0 0 341.333333 0z m-477.354666 103.7312c-26.2144-45.8752-92.330667-45.8752-118.545067 0L67.857067 853.6064C41.847467 899.072 74.752 955.733333 127.146667 955.733333h583.918933c52.4288 0 85.265067-56.6272 59.255467-102.126933l-291.9424-510.976z" fill="#FF7744" p-id="4416"></path><path d="M691.677867 581.597867c26.180267-45.8752 92.330667-45.8752 118.545066 0l155.409067 272.008533c26.0096 45.499733-6.826667 102.126933-59.255467 102.126933h-310.8864c-52.394667 0-85.265067-56.6272-59.255466-102.126933l155.409066-272.008533z" fill="#FFAA44" p-id="4417"></path></svg>