<?xml version="1.0" standalone="no"?><!DOCTYPE svg PUBLIC "-//W3C//DTD SVG 1.1//EN" "http://www.w3.org/Graphics/SVG/1.1/DTD/svg11.dtd"><svg t="1721721551025" class="icon" viewBox="0 0 1024 1024" version="1.1" xmlns="http://www.w3.org/2000/svg" p-id="5435" xmlns:xlink="http://www.w3.org/1999/xlink" width="256" height="256"><path d="M0 0h1024v1024H0V0z" fill="#202425" opacity=".01" p-id="5436"></path><path d="M447.2832 68.983467a136.533333 136.533333 0 0 1 129.4336 0l307.2 165.410133A136.533333 136.533333 0 0 1 955.733333 354.645333v314.7776a136.533333 136.533333 0 0 1-71.816533 120.2176l-307.2 165.410134a136.533333 136.533333 0 0 1-129.4336 0l-307.2-165.410134A136.533333 136.533333 0 0 1 68.266667 669.354667v-314.7776a136.533333 136.533333 0 0 1 71.816533-120.2176l307.2-165.410134z" fill="#FF7744" p-id="5437"></path><path d="M785.066667 512a273.066667 273.066667 0 1 1-546.133334 0 273.066667 273.066667 0 0 1 546.133334 0z" fill="#FFAA44" p-id="5438"></path><path d="M648.533333 512a136.533333 136.533333 0 1 1-273.066666 0 136.533333 136.533333 0 0 1 273.066666 0z" fill="#FFFFFF" p-id="5439"></path></svg>