<?xml version="1.0" standalone="no"?><!DOCTYPE svg PUBLIC "-//W3C//DTD SVG 1.1//EN" "http://www.w3.org/Graphics/SVG/1.1/DTD/svg11.dtd"><svg t="1721715744083" class="icon" viewBox="0 0 1024 1024" version="1.1" xmlns="http://www.w3.org/2000/svg" p-id="42822" xmlns:xlink="http://www.w3.org/1999/xlink" width="256" height="256"><path d="M829.793103 794.482759l105.931035-39.724138V161.103448L882.758621 141.241379l52.965517-19.862069V0h-121.37931L794.482759 52.965517l-19.862069-52.965517H88.275862v236.137931L211.862069 282.482759l-123.586207 46.344827V909.241379L158.896552 935.724138l-70.62069 26.482759V1024h192L300.137931 971.034483l19.862069 52.965517H935.724138V834.206897L829.793103 794.482759" fill="#CBB292" p-id="42823"></path><path d="M520.827586 662.810483c-69.102345 0-133.402483-11.987862-187.321379-32.538483 29.784276 137.604414 102.4 211.085241 187.321379 211.085241s157.537103-73.480828 187.32138-211.085241c-53.918897 20.550621-118.219034 32.538483-187.32138 32.538483" fill="#CBB292" p-id="42824"></path><path d="M520.827586 859.012414c-97.597793 0-174.08-84.109241-204.588138-224.997517l-6.903172-31.832276 30.455172 11.599448c53.848276 20.51531 116.453517 31.373241 181.036138 31.373241 64.582621 0 127.187862-10.857931 181.036138-31.373241l30.437517-11.599448-6.885517 31.832276c-30.508138 140.888276-106.990345 224.997517-204.588138 224.997517z m-162.321655-201.586759c30.102069 104.765793 89.458759 166.276414 162.321655 166.276414 72.862897 0 132.219586-61.510621 162.321655-166.276414-100.228414 30.24331-224.414897 30.24331-324.64331 0z" fill="#7F6E5D" p-id="42825"></path><path d="M532.691862 817.611034L485.217103 865.103448" fill="#FFFFFF" p-id="42826"></path><path d="M485.199448 882.758621a17.655172 17.655172 0 0 1-12.482207-30.13738l47.510069-47.492413a17.655172 17.655172 0 0 1 24.964414 24.982069l-47.510069 47.474758a17.602207 17.602207 0 0 1-12.482207 5.172966" fill="#7F6E5D" p-id="42827"></path><path d="M508.96331 817.611034L556.438069 865.103448" fill="#FFFFFF" p-id="42828"></path><path d="M556.455724 882.758621c-4.519724 0-9.039448-1.730207-12.499862-5.172966l-47.492414-47.474758a17.655172 17.655172 0 1 1 24.964414-24.982069l47.510069 47.492413A17.655172 17.655172 0 0 1 556.455724 882.758621" fill="#7F6E5D" p-id="42829"></path><path d="M746.813793 465.266759a9.092414 9.092414 0 0 1-4.943448 10.257655l-54.836966 26.112c-107.784828 56.567172-220.672 56.637793-332.411586 0l-54.836965-26.112a9.092414 9.092414 0 0 1-4.943449-10.257655l59.780414-255.770483a39.918345 39.918345 0 0 1 22.686897-29.748966c11.846621-5.473103 25.811862-3.601655 36.969931 3.142621l35.84 21.662897a136.651034 136.651034 0 0 0 141.417931 0l35.84-21.662897c11.158069-6.744276 25.12331-8.615724 36.969931-3.142621 11.511172 5.331862 20.409379 16.066207 22.686896 29.748966L746.813793 465.266759" fill="#E4C05C" p-id="42830"></path><path d="M664.346483 179.74731c-11.846621-5.473103-25.811862-3.601655-36.969931 3.142621l-35.84 21.662897a136.651034 136.651034 0 0 1-141.417931 0l-35.84-21.662897c-11.158069-6.744276-25.12331-8.615724-36.969931-3.142621a39.918345 39.918345 0 0 0-22.686897 29.748966l-43.961379 188.098207 43.961379 20.939034c111.739586 56.637793 224.626759 56.567172 332.411586 0l43.96138-20.939034-43.96138-188.098207a39.918345 39.918345 0 0 0-22.686896-29.748966" fill="#E6E7E8" p-id="42831"></path><path d="M740.616828 438.801655l6.196965 26.465104a9.092414 9.092414 0 0 1-4.943448 10.257655l-54.836966 26.112c-107.784828 56.567172-220.672 56.637793-332.411586 0l-54.836965-26.112a9.092414 9.092414 0 0 1-4.943449-10.257655l6.196966-26.465104C224.997517 413.537103 176.551724 398.512552 176.551724 460.994207c0 111.457103 154.14731 201.816276 344.275862 201.816276S865.103448 572.45131 865.103448 460.994207c0-62.481655-48.445793-47.457103-124.48662-22.192552" fill="#E6E7E8" p-id="42832"></path></svg>