<?xml version="1.0" standalone="no"?><!DOCTYPE svg PUBLIC "-//W3C//DTD SVG 1.1//EN" "http://www.w3.org/Graphics/SVG/1.1/DTD/svg11.dtd"><svg t="1721719803954" class="icon" viewBox="0 0 1024 1024" version="1.1" xmlns="http://www.w3.org/2000/svg" p-id="4925" xmlns:xlink="http://www.w3.org/1999/xlink" width="256" height="256"><path d="M34.133333 503.876267C34.133333 250.948267 251.050667 51.2 512 51.2s477.866667 199.7824 477.866667 452.676267V750.933333a51.2 51.2 0 0 1-102.4 0v-247.057066C887.466667 313.309867 722.3296 153.6 512 153.6S136.533333 313.344 136.533333 503.876267V750.933333a51.2 51.2 0 0 1-102.4 0v-247.057066z" fill="#FFAA44" p-id="4926"></path><path d="M563.2 648.533333a51.2 51.2 0 0 0-102.4 0v273.066667a51.2 51.2 0 0 0 102.4 0v-273.066667z m-136.533333 68.266667a51.2 51.2 0 0 0-102.4 0v136.533333a51.2 51.2 0 0 0 102.4 0v-136.533333z m273.066666 0a51.2 51.2 0 0 0-102.4 0v136.533333a51.2 51.2 0 0 0 102.4 0v-136.533333zM34.133333 682.666667a68.266667 68.266667 0 0 1 68.266667-68.266667h102.4a68.266667 68.266667 0 0 1 68.266667 68.266667v204.8a68.266667 68.266667 0 0 1-68.266667 68.266666H102.4a68.266667 68.266667 0 0 1-68.266667-68.266666v-204.8z m716.8 0a68.266667 68.266667 0 0 1 68.266667-68.266667h102.4a68.266667 68.266667 0 0 1 68.266667 68.266667v204.8a68.266667 68.266667 0 0 1-68.266667 68.266666h-102.4a68.266667 68.266667 0 0 1-68.266667-68.266666v-204.8z" fill="#FF7744" p-id="4927"></path></svg>